<?xml version="1.0" encoding="UTF-8"?>
<svg width="32" height="32" viewBox="0 0 32 32" fill="none" xmlns="http://www.w3.org/2000/svg">
  <rect width="32" height="32" rx="6" fill="#0EA5E9"/>
  <path d="M16 8C11.5817 8 8 11.5817 8 16C8 20.4183 11.5817 24 16 24C20.4183 24 24 20.4183 24 16C24 11.5817 20.4183 8 16 8Z" stroke="white" stroke-width="2"/>
  <path d="M16 12C13.7909 12 12 13.7909 12 16C12 18.2091 13.7909 20 16 20C18.2091 20 20 18.2091 20 16C20 13.7909 18.2091 12 16 12Z" fill="white"/>
  <path d="M16 8V12" stroke="white" stroke-width="2" stroke-linecap="round"/>
  <path d="M16 20V24" stroke="white" stroke-width="2" stroke-linecap="round"/>
  <path d="M8 16H12" stroke="white" stroke-width="2" stroke-linecap="round"/>
  <path d="M20 16H24" stroke="white" stroke-width="2" stroke-linecap="round"/>
</svg> 